<mxfile host="app.diagrams.net" modified="2022-08-21T01:15:54.056Z" agent="5.0 (Windows NT 10.0; Win64; x64) AppleWebKit/537.36 (KHTML, like Gecko) Chrome/103.0.0.0 Safari/537.36" etag="vcSS50kuG_HoHhs0Mdlm" version="20.2.5" type="github">
  <diagram id="2XvPriZUGRIL5lfyOMjZ" name="第 1 页">
    <mxGraphModel dx="1185" dy="635" grid="1" gridSize="10" guides="1" tooltips="1" connect="1" arrows="1" fold="1" page="1" pageScale="1" pageWidth="827" pageHeight="1169" math="0" shadow="0">
      <root>
        <mxCell id="0" />
        <mxCell id="1" parent="0" />
        <mxCell id="pYm-GZHVAz3DZbRKwcto-9" style="edgeStyle=orthogonalEdgeStyle;rounded=0;orthogonalLoop=1;jettySize=auto;html=1;entryX=0.5;entryY=0;entryDx=0;entryDy=0;" edge="1" parent="1" source="pYm-GZHVAz3DZbRKwcto-1" target="pYm-GZHVAz3DZbRKwcto-5">
          <mxGeometry relative="1" as="geometry" />
        </mxCell>
        <mxCell id="pYm-GZHVAz3DZbRKwcto-1" value="&lt;p style=&quot;margin-top: 0pt; margin-bottom: 0pt; margin-left: 0in; direction: ltr; unicode-bidi: embed; word-break: normal;&quot;&gt;&lt;span style=&quot;font-size:18.0pt;&lt;br/&gt;font-family:等线;mso-ascii-font-family:等线;mso-fareast-font-family:等线;mso-bidi-font-family:&lt;br/&gt;+mn-cs;mso-ascii-theme-font:minor-latin;mso-fareast-theme-font:minor-fareast;&lt;br/&gt;mso-bidi-theme-font:minor-bidi;color:white;mso-color-index:14;mso-font-kerning:&lt;br/&gt;12.0pt;language:en-US;font-weight:bold;mso-style-textfill-type:solid;&lt;br/&gt;mso-style-textfill-fill-themecolor:light1;mso-style-textfill-fill-color:white;&lt;br/&gt;mso-style-textfill-fill-alpha:100.0%&quot;&gt;ABCD &lt;/span&gt;&lt;span style=&quot;font-size:18.0pt;&lt;br/&gt;font-family:等线;mso-ascii-font-family:等线;mso-fareast-font-family:等线;mso-bidi-font-family:&lt;br/&gt;+mn-cs;mso-ascii-theme-font:minor-latin;mso-fareast-theme-font:minor-fareast;&lt;br/&gt;mso-bidi-theme-font:minor-bidi;color:white;mso-color-index:14;mso-font-kerning:&lt;br/&gt;12.0pt;language:en-US;font-weight:bold;mso-style-textfill-type:solid;&lt;br/&gt;mso-style-textfill-fill-themecolor:light1;mso-style-textfill-fill-color:white;&lt;br/&gt;mso-style-textfill-fill-alpha:100.0%&quot;&gt;sMRI&lt;/span&gt;&lt;span style=&quot;font-size:18.0pt;&lt;br/&gt;font-family:等线;mso-ascii-font-family:等线;mso-fareast-font-family:等线;mso-bidi-font-family:&lt;br/&gt;+mn-cs;mso-ascii-theme-font:minor-latin;mso-fareast-theme-font:minor-fareast;&lt;br/&gt;mso-bidi-theme-font:minor-bidi;color:white;mso-color-index:14;mso-font-kerning:&lt;br/&gt;12.0pt;language:en-US;font-weight:bold;mso-style-textfill-type:solid;&lt;br/&gt;mso-style-textfill-fill-themecolor:light1;mso-style-textfill-fill-color:white;&lt;br/&gt;mso-style-textfill-fill-alpha:100.0%&quot;&gt; Part 1&amp;nbsp;&lt;/span&gt;&lt;/p&gt;" style="rounded=0;whiteSpace=wrap;html=1;fillColor=#d5e8d4;strokeColor=#82b366;" vertex="1" parent="1">
          <mxGeometry x="120" y="120" width="120" height="50" as="geometry" />
        </mxCell>
        <mxCell id="pYm-GZHVAz3DZbRKwcto-10" style="edgeStyle=orthogonalEdgeStyle;rounded=0;orthogonalLoop=1;jettySize=auto;html=1;entryX=0.5;entryY=0;entryDx=0;entryDy=0;" edge="1" parent="1" source="pYm-GZHVAz3DZbRKwcto-2" target="pYm-GZHVAz3DZbRKwcto-6">
          <mxGeometry relative="1" as="geometry" />
        </mxCell>
        <mxCell id="pYm-GZHVAz3DZbRKwcto-2" value="&lt;p style=&quot;margin-top: 0pt; margin-bottom: 0pt; margin-left: 0in; direction: ltr; unicode-bidi: embed; word-break: normal;&quot;&gt;&lt;span style=&quot;font-size:18.0pt;&lt;br/&gt;font-family:等线;mso-ascii-font-family:等线;mso-fareast-font-family:等线;mso-bidi-font-family:&lt;br/&gt;+mn-cs;mso-ascii-theme-font:minor-latin;mso-fareast-theme-font:minor-fareast;&lt;br/&gt;mso-bidi-theme-font:minor-bidi;color:white;mso-color-index:14;mso-font-kerning:&lt;br/&gt;12.0pt;language:en-US;font-weight:bold;mso-style-textfill-type:solid;&lt;br/&gt;mso-style-textfill-fill-themecolor:light1;mso-style-textfill-fill-color:white;&lt;br/&gt;mso-style-textfill-fill-alpha:100.0%&quot;&gt;ABCD &lt;/span&gt;&lt;span style=&quot;font-size:18.0pt;&lt;br/&gt;font-family:等线;mso-ascii-font-family:等线;mso-fareast-font-family:等线;mso-bidi-font-family:&lt;br/&gt;+mn-cs;mso-ascii-theme-font:minor-latin;mso-fareast-theme-font:minor-fareast;&lt;br/&gt;mso-bidi-theme-font:minor-bidi;color:white;mso-color-index:14;mso-font-kerning:&lt;br/&gt;12.0pt;language:en-US;font-weight:bold;mso-style-textfill-type:solid;&lt;br/&gt;mso-style-textfill-fill-themecolor:light1;mso-style-textfill-fill-color:white;&lt;br/&gt;mso-style-textfill-fill-alpha:100.0%&quot;&gt;sMRI&lt;/span&gt;&lt;span style=&quot;font-size:18.0pt;&lt;br/&gt;font-family:等线;mso-ascii-font-family:等线;mso-fareast-font-family:等线;mso-bidi-font-family:&lt;br/&gt;+mn-cs;mso-ascii-theme-font:minor-latin;mso-fareast-theme-font:minor-fareast;&lt;br/&gt;mso-bidi-theme-font:minor-bidi;color:white;mso-color-index:14;mso-font-kerning:&lt;br/&gt;12.0pt;language:en-US;font-weight:bold;mso-style-textfill-type:solid;&lt;br/&gt;mso-style-textfill-fill-themecolor:light1;mso-style-textfill-fill-color:white;&lt;br/&gt;mso-style-textfill-fill-alpha:100.0%&quot;&gt; Part 2&amp;nbsp;&lt;/span&gt;&lt;/p&gt;" style="rounded=0;whiteSpace=wrap;html=1;fillColor=#d5e8d4;strokeColor=#82b366;" vertex="1" parent="1">
          <mxGeometry x="280" y="120" width="120" height="50" as="geometry" />
        </mxCell>
        <mxCell id="pYm-GZHVAz3DZbRKwcto-11" style="edgeStyle=orthogonalEdgeStyle;rounded=0;orthogonalLoop=1;jettySize=auto;html=1;entryX=0.5;entryY=0;entryDx=0;entryDy=0;" edge="1" parent="1" source="pYm-GZHVAz3DZbRKwcto-3" target="pYm-GZHVAz3DZbRKwcto-7">
          <mxGeometry relative="1" as="geometry" />
        </mxCell>
        <mxCell id="pYm-GZHVAz3DZbRKwcto-3" value="&lt;p style=&quot;margin-top: 0pt; margin-bottom: 0pt; margin-left: 0in; direction: ltr; unicode-bidi: embed; word-break: normal;&quot;&gt;&lt;span style=&quot;font-size:18.0pt;&lt;br/&gt;font-family:等线;mso-ascii-font-family:等线;mso-fareast-font-family:等线;mso-bidi-font-family:&lt;br/&gt;+mn-cs;mso-ascii-theme-font:minor-latin;mso-fareast-theme-font:minor-fareast;&lt;br/&gt;mso-bidi-theme-font:minor-bidi;color:white;mso-color-index:14;mso-font-kerning:&lt;br/&gt;12.0pt;language:fr;font-weight:bold;mso-style-textfill-type:solid;mso-style-textfill-fill-themecolor:&lt;br/&gt;light1;mso-style-textfill-fill-color:white;mso-style-textfill-fill-alpha:100.0%&quot;&gt;ABCD&lt;br/&gt;&lt;/span&gt;&lt;span style=&quot;font-size:18.0pt;font-family:等线;mso-ascii-font-family:等线;&lt;br/&gt;mso-fareast-font-family:等线;mso-bidi-font-family:+mn-cs;mso-ascii-theme-font:&lt;br/&gt;minor-latin;mso-fareast-theme-font:minor-fareast;mso-bidi-theme-font:minor-bidi;&lt;br/&gt;color:white;mso-color-index:14;mso-font-kerning:12.0pt;language:fr;font-weight:&lt;br/&gt;bold;mso-style-textfill-type:solid;mso-style-textfill-fill-themecolor:light1;&lt;br/&gt;mso-style-textfill-fill-color:white;mso-style-textfill-fill-alpha:100.0%&quot;&gt;sMRI&lt;/span&gt;&lt;span style=&quot;font-size:18.0pt;font-family:等线;mso-ascii-font-family:等线;mso-fareast-font-family:&lt;br/&gt;等线;mso-bidi-font-family:+mn-cs;mso-ascii-theme-font:minor-latin;mso-fareast-theme-font:&lt;br/&gt;minor-fareast;mso-bidi-theme-font:minor-bidi;color:white;mso-color-index:14;&lt;br/&gt;mso-font-kerning:12.0pt;language:fr;font-weight:bold;mso-style-textfill-type:&lt;br/&gt;solid;mso-style-textfill-fill-themecolor:light1;mso-style-textfill-fill-color:&lt;br/&gt;white;mso-style-textfill-fill-alpha:100.0%&quot;&gt; &lt;/span&gt;&lt;span style=&quot;font-size:&lt;br/&gt;18.0pt;font-family:等线;mso-ascii-font-family:等线;mso-fareast-font-family:等线;&lt;br/&gt;mso-bidi-font-family:+mn-cs;mso-ascii-theme-font:minor-latin;mso-fareast-theme-font:&lt;br/&gt;minor-fareast;mso-bidi-theme-font:minor-bidi;color:white;mso-color-index:14;&lt;br/&gt;mso-font-kerning:12.0pt;language:fr;font-weight:bold;mso-style-textfill-type:&lt;br/&gt;solid;mso-style-textfill-fill-themecolor:light1;mso-style-textfill-fill-color:&lt;br/&gt;white;mso-style-textfill-fill-alpha:100.0%&quot;&gt;Destrieux&lt;/span&gt;&lt;span style=&quot;font-size:18.0pt;font-family:等线;mso-ascii-font-family:等线;mso-fareast-font-family:&lt;br/&gt;等线;mso-bidi-font-family:+mn-cs;mso-ascii-theme-font:minor-latin;mso-fareast-theme-font:&lt;br/&gt;minor-fareast;mso-bidi-theme-font:minor-bidi;color:white;mso-color-index:14;&lt;br/&gt;mso-font-kerning:12.0pt;language:fr;font-weight:bold;mso-style-textfill-type:&lt;br/&gt;solid;mso-style-textfill-fill-themecolor:light1;mso-style-textfill-fill-color:&lt;br/&gt;white;mso-style-textfill-fill-alpha:100.0%&quot;&gt; &lt;/span&gt;&lt;span style=&quot;font-size:&lt;br/&gt;18.0pt;font-family:等线;mso-ascii-font-family:等线;mso-fareast-font-family:等线;&lt;br/&gt;mso-bidi-font-family:+mn-cs;mso-ascii-theme-font:minor-latin;mso-fareast-theme-font:&lt;br/&gt;minor-fareast;mso-bidi-theme-font:minor-bidi;color:white;mso-color-index:14;&lt;br/&gt;mso-font-kerning:12.0pt;language:fr;font-weight:bold;mso-style-textfill-type:&lt;br/&gt;solid;mso-style-textfill-fill-themecolor:light1;mso-style-textfill-fill-color:&lt;br/&gt;white;mso-style-textfill-fill-alpha:100.0%&quot;&gt;Parcellation&lt;/span&gt;&lt;span style=&quot;font-size:18.0pt;font-family:等线;mso-ascii-font-family:等线;mso-fareast-font-family:&lt;br/&gt;等线;mso-bidi-font-family:+mn-cs;mso-ascii-theme-font:minor-latin;mso-fareast-theme-font:&lt;br/&gt;minor-fareast;mso-bidi-theme-font:minor-bidi;color:white;mso-color-index:14;&lt;br/&gt;mso-font-kerning:12.0pt;language:fr;font-weight:bold;mso-style-textfill-type:&lt;br/&gt;solid;mso-style-textfill-fill-themecolor:light1;mso-style-textfill-fill-color:&lt;br/&gt;white;mso-style-textfill-fill-alpha:100.0%&quot;&gt; Part 1&amp;nbsp;&lt;/span&gt;&lt;/p&gt;" style="rounded=0;whiteSpace=wrap;html=1;fillColor=#d5e8d4;strokeColor=#82b366;" vertex="1" parent="1">
          <mxGeometry x="440" y="120" width="120" height="50" as="geometry" />
        </mxCell>
        <mxCell id="pYm-GZHVAz3DZbRKwcto-12" style="edgeStyle=orthogonalEdgeStyle;rounded=0;orthogonalLoop=1;jettySize=auto;html=1;entryX=0.5;entryY=0;entryDx=0;entryDy=0;" edge="1" parent="1" source="pYm-GZHVAz3DZbRKwcto-4" target="pYm-GZHVAz3DZbRKwcto-8">
          <mxGeometry relative="1" as="geometry" />
        </mxCell>
        <mxCell id="pYm-GZHVAz3DZbRKwcto-4" value="&lt;p style=&quot;margin-top: 0pt; margin-bottom: 0pt; margin-left: 0in; direction: ltr; unicode-bidi: embed; word-break: normal;&quot;&gt;&lt;span style=&quot;font-size:18.0pt;&lt;br/&gt;font-family:等线;mso-ascii-font-family:等线;mso-fareast-font-family:等线;mso-bidi-font-family:&lt;br/&gt;+mn-cs;mso-ascii-theme-font:minor-latin;mso-fareast-theme-font:minor-fareast;&lt;br/&gt;mso-bidi-theme-font:minor-bidi;color:white;mso-color-index:14;mso-font-kerning:&lt;br/&gt;12.0pt;language:fr;font-weight:bold;mso-style-textfill-type:solid;mso-style-textfill-fill-themecolor:&lt;br/&gt;light1;mso-style-textfill-fill-color:white;mso-style-textfill-fill-alpha:100.0%&quot;&gt;ABCD&lt;br/&gt;&lt;/span&gt;&lt;span style=&quot;font-size:18.0pt;font-family:等线;mso-ascii-font-family:等线;&lt;br/&gt;mso-fareast-font-family:等线;mso-bidi-font-family:+mn-cs;mso-ascii-theme-font:&lt;br/&gt;minor-latin;mso-fareast-theme-font:minor-fareast;mso-bidi-theme-font:minor-bidi;&lt;br/&gt;color:white;mso-color-index:14;mso-font-kerning:12.0pt;language:fr;font-weight:&lt;br/&gt;bold;mso-style-textfill-type:solid;mso-style-textfill-fill-themecolor:light1;&lt;br/&gt;mso-style-textfill-fill-color:white;mso-style-textfill-fill-alpha:100.0%&quot;&gt;sMRI&lt;/span&gt;&lt;span style=&quot;font-size:18.0pt;font-family:等线;mso-ascii-font-family:等线;mso-fareast-font-family:&lt;br/&gt;等线;mso-bidi-font-family:+mn-cs;mso-ascii-theme-font:minor-latin;mso-fareast-theme-font:&lt;br/&gt;minor-fareast;mso-bidi-theme-font:minor-bidi;color:white;mso-color-index:14;&lt;br/&gt;mso-font-kerning:12.0pt;language:fr;font-weight:bold;mso-style-textfill-type:&lt;br/&gt;solid;mso-style-textfill-fill-themecolor:light1;mso-style-textfill-fill-color:&lt;br/&gt;white;mso-style-textfill-fill-alpha:100.0%&quot;&gt; &lt;/span&gt;&lt;span style=&quot;font-size:&lt;br/&gt;18.0pt;font-family:等线;mso-ascii-font-family:等线;mso-fareast-font-family:等线;&lt;br/&gt;mso-bidi-font-family:+mn-cs;mso-ascii-theme-font:minor-latin;mso-fareast-theme-font:&lt;br/&gt;minor-fareast;mso-bidi-theme-font:minor-bidi;color:white;mso-color-index:14;&lt;br/&gt;mso-font-kerning:12.0pt;language:fr;font-weight:bold;mso-style-textfill-type:&lt;br/&gt;solid;mso-style-textfill-fill-themecolor:light1;mso-style-textfill-fill-color:&lt;br/&gt;white;mso-style-textfill-fill-alpha:100.0%&quot;&gt;Destrieux&lt;/span&gt;&lt;span style=&quot;font-size:18.0pt;font-family:等线;mso-ascii-font-family:等线;mso-fareast-font-family:&lt;br/&gt;等线;mso-bidi-font-family:+mn-cs;mso-ascii-theme-font:minor-latin;mso-fareast-theme-font:&lt;br/&gt;minor-fareast;mso-bidi-theme-font:minor-bidi;color:white;mso-color-index:14;&lt;br/&gt;mso-font-kerning:12.0pt;language:fr;font-weight:bold;mso-style-textfill-type:&lt;br/&gt;solid;mso-style-textfill-fill-themecolor:light1;mso-style-textfill-fill-color:&lt;br/&gt;white;mso-style-textfill-fill-alpha:100.0%&quot;&gt; &lt;/span&gt;&lt;span style=&quot;font-size:&lt;br/&gt;18.0pt;font-family:等线;mso-ascii-font-family:等线;mso-fareast-font-family:等线;&lt;br/&gt;mso-bidi-font-family:+mn-cs;mso-ascii-theme-font:minor-latin;mso-fareast-theme-font:&lt;br/&gt;minor-fareast;mso-bidi-theme-font:minor-bidi;color:white;mso-color-index:14;&lt;br/&gt;mso-font-kerning:12.0pt;language:fr;font-weight:bold;mso-style-textfill-type:&lt;br/&gt;solid;mso-style-textfill-fill-themecolor:light1;mso-style-textfill-fill-color:&lt;br/&gt;white;mso-style-textfill-fill-alpha:100.0%&quot;&gt;Parcellation&lt;/span&gt;&lt;span style=&quot;font-size:18.0pt;font-family:等线;mso-ascii-font-family:等线;mso-fareast-font-family:&lt;br/&gt;等线;mso-bidi-font-family:+mn-cs;mso-ascii-theme-font:minor-latin;mso-fareast-theme-font:&lt;br/&gt;minor-fareast;mso-bidi-theme-font:minor-bidi;color:white;mso-color-index:14;&lt;br/&gt;mso-font-kerning:12.0pt;language:fr;font-weight:bold;mso-style-textfill-type:&lt;br/&gt;solid;mso-style-textfill-fill-themecolor:light1;mso-style-textfill-fill-color:&lt;br/&gt;white;mso-style-textfill-fill-alpha:100.0%&quot;&gt; Part &lt;/span&gt;&lt;span style=&quot;font-size:18.0pt;font-family:等线;mso-ascii-font-family:等线;mso-fareast-font-family:&lt;br/&gt;等线;mso-bidi-font-family:+mn-cs;mso-ascii-theme-font:minor-latin;mso-fareast-theme-font:&lt;br/&gt;minor-fareast;mso-bidi-theme-font:minor-bidi;color:white;mso-color-index:14;&lt;br/&gt;mso-font-kerning:12.0pt;language:en-US;font-weight:bold;mso-style-textfill-type:&lt;br/&gt;solid;mso-style-textfill-fill-themecolor:light1;mso-style-textfill-fill-color:&lt;br/&gt;white;mso-style-textfill-fill-alpha:100.0%&quot;&gt;2&lt;/span&gt;&lt;span style=&quot;font-size:&lt;br/&gt;18.0pt;font-family:等线;mso-ascii-font-family:等线;mso-fareast-font-family:等线;&lt;br/&gt;mso-bidi-font-family:+mn-cs;mso-ascii-theme-font:minor-latin;mso-fareast-theme-font:&lt;br/&gt;minor-fareast;mso-bidi-theme-font:minor-bidi;color:white;mso-color-index:14;&lt;br/&gt;mso-font-kerning:12.0pt;language:fr;font-weight:bold;mso-style-textfill-type:&lt;br/&gt;solid;mso-style-textfill-fill-themecolor:light1;mso-style-textfill-fill-color:&lt;br/&gt;white;mso-style-textfill-fill-alpha:100.0%&quot;&gt; &lt;/span&gt;&lt;/p&gt;" style="rounded=0;whiteSpace=wrap;html=1;fillColor=#d5e8d4;strokeColor=#82b366;" vertex="1" parent="1">
          <mxGeometry x="600" y="120" width="120" height="50" as="geometry" />
        </mxCell>
        <mxCell id="pYm-GZHVAz3DZbRKwcto-20" style="edgeStyle=orthogonalEdgeStyle;rounded=0;orthogonalLoop=1;jettySize=auto;html=1;entryX=0.5;entryY=0;entryDx=0;entryDy=0;exitX=0.5;exitY=1;exitDx=0;exitDy=0;" edge="1" parent="1" source="pYm-GZHVAz3DZbRKwcto-5" target="pYm-GZHVAz3DZbRKwcto-13">
          <mxGeometry relative="1" as="geometry" />
        </mxCell>
        <mxCell id="pYm-GZHVAz3DZbRKwcto-5" value="&lt;p style=&quot;margin-top: 0pt; margin-bottom: 0pt; margin-left: 0in; direction: ltr; unicode-bidi: embed; word-break: normal;&quot;&gt;&lt;span&gt;SVM linear/&lt;/span&gt;&lt;span&gt;rbf&lt;/span&gt;&lt;span&gt; model 1&lt;/span&gt;&lt;/p&gt;" style="rounded=0;whiteSpace=wrap;html=1;fillColor=#dae8fc;strokeColor=#6c8ebf;" vertex="1" parent="1">
          <mxGeometry x="120" y="210" width="120" height="50" as="geometry" />
        </mxCell>
        <mxCell id="pYm-GZHVAz3DZbRKwcto-21" style="edgeStyle=orthogonalEdgeStyle;rounded=0;orthogonalLoop=1;jettySize=auto;html=1;entryX=0.5;entryY=0;entryDx=0;entryDy=0;" edge="1" parent="1" source="pYm-GZHVAz3DZbRKwcto-6" target="pYm-GZHVAz3DZbRKwcto-13">
          <mxGeometry relative="1" as="geometry" />
        </mxCell>
        <mxCell id="pYm-GZHVAz3DZbRKwcto-6" value="&lt;p style=&quot;margin-top: 0pt; margin-bottom: 0pt; margin-left: 0in; direction: ltr; unicode-bidi: embed; word-break: normal;&quot;&gt;&lt;span&gt;SVM linear/&lt;/span&gt;&lt;span&gt;rbf&lt;/span&gt;&lt;span&gt; model 2&lt;/span&gt;&lt;/p&gt;" style="rounded=0;whiteSpace=wrap;html=1;fillColor=#dae8fc;strokeColor=#6c8ebf;" vertex="1" parent="1">
          <mxGeometry x="280" y="210" width="120" height="50" as="geometry" />
        </mxCell>
        <mxCell id="pYm-GZHVAz3DZbRKwcto-22" style="edgeStyle=orthogonalEdgeStyle;rounded=0;orthogonalLoop=1;jettySize=auto;html=1;exitX=0.5;exitY=1;exitDx=0;exitDy=0;" edge="1" parent="1" source="pYm-GZHVAz3DZbRKwcto-7">
          <mxGeometry relative="1" as="geometry">
            <mxPoint x="420" y="340" as="targetPoint" />
          </mxGeometry>
        </mxCell>
        <mxCell id="pYm-GZHVAz3DZbRKwcto-7" value="&lt;p style=&quot;margin-top: 0pt; margin-bottom: 0pt; margin-left: 0in; direction: ltr; unicode-bidi: embed; word-break: normal;&quot;&gt;&lt;span&gt;SVM linear/&lt;/span&gt;&lt;span&gt;rbf&lt;/span&gt;&lt;span&gt; model 3&lt;/span&gt;&lt;/p&gt;" style="rounded=0;whiteSpace=wrap;html=1;fillColor=#dae8fc;strokeColor=#6c8ebf;" vertex="1" parent="1">
          <mxGeometry x="440" y="210" width="120" height="50" as="geometry" />
        </mxCell>
        <mxCell id="pYm-GZHVAz3DZbRKwcto-23" style="edgeStyle=orthogonalEdgeStyle;rounded=0;orthogonalLoop=1;jettySize=auto;html=1;exitX=0.5;exitY=1;exitDx=0;exitDy=0;" edge="1" parent="1" source="pYm-GZHVAz3DZbRKwcto-8">
          <mxGeometry relative="1" as="geometry">
            <mxPoint x="420" y="340" as="targetPoint" />
          </mxGeometry>
        </mxCell>
        <mxCell id="pYm-GZHVAz3DZbRKwcto-8" value="&lt;p style=&quot;margin-top: 0pt; margin-bottom: 0pt; margin-left: 0in; direction: ltr; unicode-bidi: embed; word-break: normal;&quot;&gt;&lt;span&gt;SVM linear/&lt;/span&gt;&lt;span&gt;rbf&lt;/span&gt;&lt;span&gt; model 4&lt;/span&gt;&lt;/p&gt;" style="rounded=0;whiteSpace=wrap;html=1;fillColor=#dae8fc;strokeColor=#6c8ebf;" vertex="1" parent="1">
          <mxGeometry x="600" y="210" width="120" height="50" as="geometry" />
        </mxCell>
        <mxCell id="pYm-GZHVAz3DZbRKwcto-25" style="edgeStyle=orthogonalEdgeStyle;rounded=0;orthogonalLoop=1;jettySize=auto;html=1;entryX=0.5;entryY=0;entryDx=0;entryDy=0;" edge="1" parent="1" source="pYm-GZHVAz3DZbRKwcto-13" target="pYm-GZHVAz3DZbRKwcto-24">
          <mxGeometry relative="1" as="geometry" />
        </mxCell>
        <mxCell id="pYm-GZHVAz3DZbRKwcto-13" value="&lt;p style=&quot;margin-top: 0pt; margin-bottom: 0pt; margin-left: 0in; direction: ltr; unicode-bidi: embed; word-break: normal;&quot;&gt;&lt;span&gt;SVM &lt;/span&gt;&lt;span&gt;rbf&lt;/span&gt;&lt;span&gt; model/deep learning model&lt;/span&gt;&lt;/p&gt;" style="rounded=0;whiteSpace=wrap;html=1;fillColor=#e1d5e7;strokeColor=#9673a6;" vertex="1" parent="1">
          <mxGeometry x="360" y="340" width="120" height="50" as="geometry" />
        </mxCell>
        <mxCell id="pYm-GZHVAz3DZbRKwcto-24" value="&lt;p style=&quot;margin-top: 0pt; margin-bottom: 0pt; margin-left: 0in; direction: ltr; unicode-bidi: embed; word-break: normal;&quot;&gt;binary result&lt;/p&gt;" style="rounded=0;whiteSpace=wrap;html=1;fillColor=#fff2cc;strokeColor=#d6b656;" vertex="1" parent="1">
          <mxGeometry x="360" y="430" width="120" height="50" as="geometry" />
        </mxCell>
      </root>
    </mxGraphModel>
  </diagram>
</mxfile>
